{"title":"AVATAR DVDrip","uid":5521464,"size":2990597652,"categoryP":"video","categoryS":"movies","magnet":"?xt=urn:btih:d4d1ac07b163db2724dac56ffb9b2523242716d6&amp;dn=AVATAR+DVDrip&amp;tr=udp%3A%2F%2Ftracker.openbittorrent.com%3A80&amp;tr=udp%3A%2F%2Fopen.demonii.com%3A1337&amp;tr=udp%3A%2F%2Ftracker.coppersurfer.tk%3A6969&amp;tr=udp%3A%2F%2Fexodus.desync.com%3A6969","seeders":0,"leechers":0,"uploader":"Beebe85","files":-1,"time":1272587899,"description":"Avatar DVDrip\n\nVideo: Xvid 720x404 23.98fps \nAudio: Dolby AC3 48000Hz 6ch 448kbps\n\n\nGeneral\nComplete name                    : AVATAR \nFormat                           : AVI\nFormat/Info                      : Audio Video Interleave\nFormat profile                   : OpenDML\nFile size                        : 2.78 GiB\nDuration                         : 2h 41mn\nOverall bit rate                 : 2459 Kbps\nMovie name                       : AVATAR.Title1.DVDRip\nWriting application              : Lavf52.33.0\nOriginal source form/Name        : AVATAR\n\nVideo\nID                               : 0\nFormat                           : MPEG-4 Visual\nFormat profile                   : Simple@L3\nFormat settings, BVOP            : No\nFormat settings, QPel            : No\nFormat settings, GMC             : No warppoints\nFormat settings, Matrix          : Default (H.263)\nCodec ID                         : XVID\nCodec ID/Hint                    : XviD\nDuration                         : 2h 41mn\nBit rate                         : 1999 Kbps\nWidth                            : 720 pixels\nHeight                           : 404 pixels\nDisplay aspect ratio             : 16:9\nFrame rate                       : 23.976 fps\nResolution                       : 24 bits\nColorimetry                      : 4:2:0\nScan type                        : Progressive\nBits/(Pixel*Frame)               : 0.287\nStream size                      : 2.26 GiB (81%)\nWriting library                  : XviD 1.2.1 (UTC 2008-12-04)\n\nAudio\nID                               : 1\nFormat                           : AC-3\nFormat/Info                      : Audio Coding 3\nCodec ID                         : 2000\nDuration                         : 2h 41mn\nBit rate mode                    : Constant\nBit rate                         : 448 Kbps\nChannel(s)                       : 6 channels\nChannel positions                : Front: L C R, Surround: L R, LFE\nSampling rate                    : 48.0 KHz\nStream size                      : 518 MiB (18%)\nAlignment                        : Aligned on interleaves\nInterleave, duration             : 32 ms (0.77 video frame)\n","torrent":{"xt":"urn:btih:d4d1ac07b163db2724dac56ffb9b2523242716d6","amp;dn":"AVATAR+DVDrip","amp;tr":["udp%3A%2F%2Ftracker.openbittorrent.com%3A80","udp%3A%2F%2Fopen.demonii.com%3A1337","udp%3A%2F%2Ftracker.coppersurfer.tk%3A6969","udp%3A%2F%2Fexodus.desync.com%3A6969"],"infoHash":"d4d1ac07b163db2724dac56ffb9b2523242716d6","infoHashBuffer":{"type":"Buffer","data":[212,209,172,7,177,99,219,39,36,218,197,111,251,155,37,35,36,39,22,214]},"announce":[],"urlList":[]}}